<?xml version="1.0" encoding="UTF-8"?>
<svg id="Layer_1" data-name="Layer 1" xmlns="http://www.w3.org/2000/svg" viewBox="0 0 503.48 280.42">
  <defs>
    <style>
      .cls-1 {
        fill: #fff;
      }
    </style>
  </defs>
  <path class="cls-1" d="M503.42,93.81c-33.96,42.86-25.91,105.39-57.87,149.43-21.94,30.23-60.97,44.29-97.36,33.65-23.07-6.75-33.19-29.22-25.91-51.73,1.69-5.21,4.92-9.56,7.19-14.46-26.8-1.78-54.16,1.06-80.67,4.93-38,5.54-75.49,14.56-111.33,28.25-10.33,3.95-20.2,9.04-30.29,13.03-.54.21-1.43,1.2-1.85.21,7.7-11.48,14.13-23.89,18.75-36.94.9-2.54,3.1-12.67,4.33-13.55,24.2-6.18,49.3-9.58,74.21-11.73,39.59-3.43,92.1-5.82,131.22-.59,12.92,1.72,29.36,4.75,38.89,14.09-4.51,6.38-11.93,10.59-14.43,18.43-7.84,24.64,21.04,26.84,37.54,21.04,10.66-3.75,21.48-15.32,27.69-24.56,10.46-15.58,14.73-36.2,20.75-53.84-8.82,10.13-17.31,19.89-30.26,25.08-19.48,7.81-49.63-.15-53.99-22.99-1.4-7.32,2.16-7.84,5.3-13.32,14.2-24.82,17.2-59.25,7.64-86.19,11.68-29.98,35.84-60.41,68.04-69.15,24.76-6.72,46.04-1.81,58.4,21.72,4.59,8.74,6.38,14.41-.45,22.47-6.24,7.37-31.03,27.91-40.57,26.83-.73-.08-1.49.13-1.03-1.04.55-1.38,2.92-4.05,3.79-5.84,5.42-11.17,7.89-23.14-1.06-33.34-13.57-15.45-30.53,9.02-37.4,19.64-9.77,15.11-16.86,32.33-21.9,49.61-4.56,15.64-14.96,54.35,2.71,64.34,20.04,11.33,35.12-21.35,40.43-35.64.95-2.55,5.99-14.61,2.66-15.71l-24.19,1.57c-1.17-1.68,1.16-11.04,1.76-13.19s2.83-10.47,4.65-10.47h74.6Z"/>
  <g>
    <path class="cls-1" d="M159,37.46l-.21-3.17c.11,1.06.17,2.12.21,3.17Z"/>
    <path class="cls-1" d="M84.36,93.82h74.6c-37.45,47.25-26.86,118.09-69.65,162.66-9.9,10.31-21.88,17.88-35.71,20.26-32.66,5.62-55.95-19.41-40.97-45.63.08-.14.17-.28.26-.41,5.69-8.77,20.42-19.8,31.18-16.5.8,1.27-2.97,8.18-3.57,10.4-6.18,22.86,11.43,22.41,13.44,22.19,11.28-1.25,18.54-8.67,36.58-67.07.93-3.01,1.95-5.99,3.11-8.9-22.17,24.11-25.37,23.7-28.31,25.11-27.54,13.23-57.06-1.45-63.5-33.34C-9.09,108.52,30.36,25.56,83.65,5.8c22.61-8.38,61.91-11.19,72.39,16.33,1.91,5.01,4.27,17.31,1.89,24.94-5.52,17.69-42.6,27-44,26.83-.66-.08-1.34.08-1.11-.77.02-.08.04-.17.08-.27.55-1.38,2.92-4.05,3.79-5.84,3.7-7.62,6.02-15.6,4.29-23.13-4.64-20.19-20.09-16.53-29.2-7.84-16.7,15.94-29.67,47.01-35.45,66.87-4.55,15.63-14.95,54.35,2.71,64.34,13.38,7.57,22.4-4.59,28.52-15.23,6.39-11.12,10.42-23.62,15.37-35.42-.18-.34-.44-.58-.79-.7l-.23-.02-23.13,1.21-.76-.07c-1.17-1.67,1.09-10.59,1.69-12.74.57-2.05,2.83-10.47,4.65-10.47Z"/>
  </g>
  <path class="cls-1" d="M138.67,178.38c-.39-.11-1.46-1.37-1.6-1.88,0,0,12.62-61.28,37.03-89.51-2.04,0-15.64.02-15.64.02l14.86-54.13c2.07-6.13-8.69-11.65-6.36-17.28.81-1.95,35.22-11.37,39.8-13.28l2.09.69.16,2.27-18.43,71.34c16.71-15.97,44.56-14.38,46.77,12.7,3.21,39.25-28.15,99.48-73.76,93.7-3.75-.48-11.51-4.64-13.24-4.64-2.65,0-9.79.54-11.69,0ZM201.93,91.43c-7-.16-13.37,7.95-16.29,13.6-3.54,6.85-12.63,37.54-12.94,44.85-.34,8.04,4.33,11.71,11.48,7.32,13.67-8.38,25.76-42.26,24.3-57.57-.4-4.17-1.83-8.09-6.55-8.2Z"/>
  <path class="cls-1" d="M338.26,65.14c12.61-.94,22.8,6.22,27.29,17.69,11.74,29.99-5.48,86.65-39.17,96.26-15.69,4.47-32.02-1.09-38.19-16.84-12.53-32.02,12.21-94.28,50.07-97.1ZM334.1,86.41c-6.21,1.3-12.44,15.68-14.44,21.31-4.26,12.01-7.94,30.87-6.68,43.49,1.15,11.55,10.48,10.49,15.94,2.21,5.96-9.05,12.84-35.27,13.61-46.21.45-6.44,1.62-22.9-8.43-20.8Z"/>
  <path class="cls-1" d="M220.49,177.7l-1.06-1.72c1.52-7.17,7.37-9.38,10.15-16.7,8.77-23.09,11.19-52.66,19.96-76.29,2.1-6.24-4.27-8.42-4.65-13.93l32.31-3.1c.76.48,1.2.96,1.22,1.92.05,3.88-2.86,11.33-3.65,15.59-.13.71-.91,2.25.37,2.09,3.73-8.45,10.37-18.16,19.48-21.44,3.48-1.25,6.33-2.03,9.47.58-1.92,8.63-1.55,18.51-9.34,24.3-3.12,2.31-7.28,3.4-10.6,5.91-9.72,7.35-14.44,21.83-17.74,33.14-1.88,6.44-7.95,27.32-7.81,32.81.17,6.95,6.7,11.11,8.99,16.85h-47.1Z"/>
</svg>