<?xml version="1.0" encoding="UTF-8"?>
<svg id="Layer_1" xmlns="http://www.w3.org/2000/svg" version="1.1" viewBox="0 0 612 434">
  <!-- Generator: Adobe Illustrator 29.5.0, SVG Export Plug-In . SVG Version: 2.1.0 Build 137)  -->
  <defs>
    <style>
      .st0 {
        fill: #231f20;
      }

      .st1 {
        fill: #d7df28;
      }

      .st2 {
        fill: #3fc3f1;
      }
    </style>
  </defs>
  <path class="st0" d="M71.6,379.24c-3.83,0-7.79-.13-11.77-.39-6.88-.44-13.13-3.51-17.61-8.65-4.5-5.16-6.7-11.83-6.19-18.77,1.01-13.65,11.92-24.65,25.39-25.58.59-.04,1.2-.06,1.8-.06.4,0,.81,0,1.21.03,2.51.11,5.05.17,7.54.17,2.85,0,5.7-.08,8.45-.22.78-.04,1.6-.09,2.42-.15,7.79-.54,17.64-1.75,24.84-6.34,3.8-2.43,6.86-7.13,6.86-9.41,0-.57-1.4-1.87-3.99-3.17l-1.06-.53c-12.01-6-34.4-17.18-33.79-41.94.21-8.52,3.64-17.04,9.67-23.98,7.36-8.46,17.22-13.88,29.4-16.18-2.89-5.3-3.23-11.61-.98-18.78,5.33-17.07,9.47-29.13,14.26-43.09,1.74-5.07,3.55-10.35,5.56-16.27,1.52-4.49,3.03-8.92,4.51-13.34-.08.02-.16.04-.25.06-4.33.99-9.17,2.11-14.47,2.47-1.21.08-2.41.13-3.57.13-1.69,0-3.39-.09-5.04-.27-14.49-1.58-21.25-11.39-21.52-20.4-.23-7.61,4.33-17.99,17.96-22.23,10.08-3.13,20.45-5.01,30.47-6.83l.26-.05c4.09-.74,8.31-1.51,12.23-2.33,63.83-13.24,123.51-22.99,182.44-29.79,6.39-.74,12.77-1.47,19.16-2.19l2.36-.27c6.54-.74,13.07-1.49,19.6-2.24,17-1.97,32.89-3.64,48.58-5.1l1.63-.17c2.72-.28,7.33-.76,12.78-1.14,5.27-.36,10.11-.55,14.38-.55,17.75,0,27.87,3.17,33.84,10.58,4.2,5.22,5.57,12.01,3.78,18.63-1.4,5.17-4.1,9.35-8.07,12.54,2.62,5.02,2.69,9.98,2.72,11.86.27,18.76-4.28,37.14-8.69,54.91-.66,2.64-1.3,5.25-1.92,7.81l-2.04,8.53c-1.43,5.99-3.04,12.79-4.72,19.41-.08.35-.21.93-.36,1.69,1.72-.08,3.54-.16,5.41-.16,4.05,0,7.36.35,10.4,1.1,8.74,2.16,14.92,9.62,15.39,18.56.17,3.49-.49,6.82-2.01,10.24-2.21,4.98-5.31,9.14-9.29,12.45.05.02.09.04.14.05,4.23,1.72,7.87,4.22,10.73,7.3,2.42-3.79,5.63-7.22,9.51-10.03,6.65-4.81,14.82-7.58,24.28-8.23l1.13-.07c1.18-.06,2.21-.08,3.24-.08,10.55,0,24.16,2.75,30.71,10.46,5.53,6.52,6.92,14.89,3.7,22.39-1.88,4.39-5.3,8.11-9.54,10.63,2.68,3.63,4.87,7.86,6.17,12.79,3.05,11.54.5,23.87-7.57,36.66-8.04,12.73-24.51,28.38-57.32,30.65-2.73.19-5.56.28-8.42.28-29.9,0-56.77-10.16-57.02-10.26-.73-.29-1.43-.6-2.11-.91-.3.77-.61,1.54-.91,2.31-6.41,16.24-17.98,18.75-22.66,19.08-.52.04-1.02.05-1.52.05-5.72,0-11.16-2.24-15.26-6.21-5.69,3.46-11.83,3.98-15.2,4.26-7.23.6-14.58,1.44-18.38,1.96-3.35,2.06-7.01,3.27-10.78,3.53-.53.04-1.03.05-1.53.05-1.24,0-2.46-.1-3.65-.31-4.09,5.44-10.44,9.09-17.78,9.6-.56.04-1.11.06-1.66.06-7.15,0-13.59-3.13-17.68-8.58-1.19-1.59-2.14-3.24-2.89-4.93-.22.27-.45.53-.68.79-4.64,5.21-10.62,8.32-16.86,8.75-.51.03-1.01.05-1.52.05-5.55,0-10.87-2.1-14.96-5.92-3.52-3.27-5.92-7.61-6.91-12.35-1.57.23-2.96.35-4.06.44-7.21.6-14.55,1.43-18.36,1.96-3.36,2.06-7.02,3.27-10.79,3.53-.51.03-1.01.05-1.52.05h0c-6.39,0-12.43-2.8-16.55-7.68-2.08-2.46-3.58-5.29-4.46-8.33-3.42,1.07-6.63,1.39-9.05,1.63l-17.08,1.72c-.42.04-1.02.1-1.41.16-.14.08-.28.16-.43.24-1.22.69-3.05,1.73-5.4,2.48-1.57.5-3.22.82-4.89.94-.51.04-1.02.05-1.53.05h0c-4.73,0-9.35-1.58-13.06-4.36-.66,1.16-1.36,2.32-2.1,3.49-14.8,23.44-39.42,36.51-73.17,38.85-3.53.24-7.21.37-10.94.37ZM484.18,294.26c4.19.43,8.33.64,12.42.64,2.08,0,4.17-.06,6.21-.17.56-.03,1.15-.07,1.75-.11,5.22-.36,11.8-1.15,16.3-4.02.81-.52,1.59-1.31,2.16-2.06l-.47-.24c-5.49-2.74-13.99-6.99-20.04-14.26-3.91,6.75-10.02,13.49-18.33,20.21ZM153.06,273.91c2.33,2.39,4.51,5.05,6.42,7.98l4.81-14.33c-3.11,2.9-6.99,5.12-11.23,6.35ZM167.66,237.17c1.92,2.79,3.21,5.82,3.84,8.92l.33-1c.52-1.56,1.2-3.56,2.22-5.7-2.23-.4-4.39-1.15-6.39-2.22ZM410.66,234.82c3.33,0,6.47.53,9.33,1.52-4.34-3.81-6.75-9.25-6.94-15.24-2.84.7-5.77,1.23-8.94,1.62-.27.03-.54.07-.81.1,1.14,4.2,1.08,8.64-.22,12.83,1.8-.37,3.56-.62,5.26-.74.8-.06,1.57-.08,2.32-.08ZM154.26,227.24c1.94.77,3.78,1.64,5.47,2.64-.98-1.54-1.82-3.33-2.41-5.4-.91,1.02-1.95,1.94-3.06,2.76ZM314.28,221.03c1.14,1.18,2.15,2.48,3,3.89.58-.11,1.16-.2,1.75-.26-.22-1.13-.35-2.29-.4-3.47-.28,0-.55,0-.83,0-1.2,0-2.38-.06-3.53-.17ZM203.09,219.29c-.9,1.77-1.83,3.54-2.78,5.3l3.91-.32c-.53-1.57-.91-3.24-1.13-4.98ZM286.77,207.08c-.98,2.75-2.02,5.56-3.07,8.29,1.39-.29,2.77-.58,4.14-.87,1.85-.39,3.68-.65,5.44-.78.58-.04,1.14-.07,1.69-.08-2.98-2.03-5.7-4.29-8.19-6.56ZM421.1,174.25c1.07,0,2.08.06,3.05.17,1.16-4.94,2.27-9.91,3.29-14.87l12.34-59.97c.39-1.89.96-4.67,2.04-7.76-3.2.13-6.43.29-9.55.5-1.4.1-2.79.21-4.18.34.57,2.65.74,5.66.38,9.04-2.66,25.2-10.26,49.27-17.62,72.56.62,0,1.26,0,1.91,0,1.69,0,3.21,0,4.45.01h2.65c.31,0,.75-.02,1.24-.02ZM314.66,163.5c3.85,3.61,7.56,6.98,11.46,9.66.07.04.13.09.2.13,1.17-6.35,2.67-12.5,4.09-18.34.34-1.41.68-2.79,1.01-4.16-1,.85-2.01,1.68-3.01,2.49-4.58,3.73-9.23,7.03-13.75,10.21Z"/>
  <path class="st2" d="M412.71,339.06c-2.63.18-5.12-.92-6.84-3.01-1.75-2.12-2.4-4.95-1.75-7.56,3.73-15.02,21.47-60.18,30.63-77.93,1.99-3.85,4.55-5.75,8.08-6,1.29-.09,2.61.04,4.19.27.22.03.44.04.7.02,1.03-.07,2.26-.52,3.55-1l.63-.23c4.87-1.76,10.15-2.88,15.25-3.24,6.48-.45,12.48.36,17.38,2.35,4.59,1.86,7.79,5.29,8.79,9.4,2.79,11.5-6.59,24.52-27.9,38.68-.89.59-3.93,2.2-10.19,5.48-2.3,1.21-5.12,2.68-7.15,3.77.69.44,1.65.87,2.83,1.25,18,5.74,35.71,8.18,52.64,7.27.65-.04,1.3-.07,1.96-.12,6.87-.48,15.66-1.61,22.8-6.16,4.71-3.01,9.48-9.13,9.48-15.01,0-4.52-2.78-8.22-8.28-10.97l-.75-.38c-7.68-3.83-18.2-9.09-19.5-19.54-.8-6.46,2.67-13.52,8.85-17.99,4.52-3.26,10.28-5.16,17.12-5.64l.98-.06c10.62-.52,19.99,2.46,22.58,5.51,2.86,3.37,2.19,6.44,1.53,7.97-1.44,3.35-5.08,5.25-8.06,5.65-.7.09-1.4.16-2.12.21-2.25.16-4.54.12-6.76.08-2.13-.04-4.34-.07-6.41.07-3.52.24-6.11.97-8.29,2.34.48.3,1.66.83,2.91,1.39,6.88,3.1,21.21,9.54,24.69,22.69,2.03,7.66.05,16.32-5.89,25.72-9.2,14.57-24.87,22.73-46.56,24.23-29.29,2.03-58.99-8.88-59.27-8.99-6.66-2.7-10.46-6.63-12.97-9.23-.22-.23-.46-.47-.69-.71-.06.15-.13.32-.2.5-2.4,6.2-4.81,12.39-7.26,18.58-3.39,8.59-8.19,10.17-10.74,10.35ZM463.25,258.82c-9.66.67-16.64,8.21-21.29,23.04.02,0,.05-.02.07-.03,2.9-1.23,6.52-2.76,10.07-4.89,3.76-2.26,17.1-12.8,19.94-17.29-2.71-.57-5.68-1.05-8.79-.83Z"/>
  <path class="st2" d="M338.37,341.59c.01-.63-.13-1.47-1.34-8.18-5.81-32.21-8.1-50.65-6.84-54.84,7.3-4.89,55.56-37.96,59.24-45.94,1.3-2.81,1.05-6.1-.65-8.79-1.7-2.69-4.52-4.24-7.53-4.13l-.35.02c-3.61.25-6.58,2.46-8.75,4.08l-46.84,34.98,1.94-8.99c1.08-5.02-.18-7.81-1.42-9.27-1.27-1.49-3.07-2.24-5.07-2.1-1.97.14-3.92,1.14-5.49,2.82-1.8,1.93-2.66,4.27-3.34,6.16l-5.93,16.27c-20.33,55.73-26.25,72.34-26.25,75.05,0,2.78,1.1,5.4,3.02,7.19,1.67,1.56,3.83,2.33,6.07,2.18,1.84-.13,4.63-.95,7.46-4.13,2.54-2.86,3.7-6.44,4.63-9.32l12.7-39.3c.56,9.04,1.67,23.18,3.36,34.17.31,2,.51,3.97.71,5.85.55,5.27,1.08,10.25,3.61,13.62,1.57,2.09,4.3,3.22,7.3,3.01,4.78-.33,9.67-4.01,9.76-10.41Z"/>
  <path class="st2" d="M351.57,342.65c2.15-.15,4.31-1.13,6.27-2.83,2.72-.65,14.18-1.94,22.69-2.65,3.29-.27,8.25-.69,11.31-4.07,1.62-1.79,2.42-4.07,2.37-6.77-.18-9.45-9.53-8.8-14.05-8.49-4.91.34-9.84.79-14.12,1.21,1.14-4.63,2.09-7.62,2.84-8.89,2.47-.01,5.09-.12,7.8-.31,8.66-.6,19.03-2.16,22.67-4.3,3.65-2.15,5.75-7.42,4.68-11.74-.99-4.01-4.31-6.22-8.86-5.91-.3.02-.61.05-.93.1-4.49.62-8.98,1.3-13.47,1.99-2.5.38-5,.76-7.49,1.13l5.57-17.14c.75-.12,1.67-.25,2.57-.39,7.66-1.14,21.91-3.25,32.26-6.37,5.11-1.54,8.44-6.04,7.9-10.69-.49-4.28-4.48-8.35-12.27-7.81-1.12.08-2.3.25-3.52.51-9.61,2.05-19.93,4.14-30.3,5.6-7.92,1.11-9.13,5.65-10.01,8.96-.11.42-.23.86-.36,1.31-2.23,7.35-6.54,19.92-10.7,32.09-5.24,15.3-10.19,29.75-11.21,34.34-.7,3.12-.03,6.18,1.83,8.38,1.63,1.92,4.01,2.93,6.54,2.75h0Z"/>
  <path class="st2" d="M232.25,335.8c2.15-.15,4.31-1.13,6.27-2.83,2.72-.65,14.18-1.94,22.68-2.65,3.29-.27,8.25-.69,11.31-4.06,1.63-1.79,2.42-4.07,2.37-6.78-.18-9.45-9.53-8.8-14.05-8.49-4.87.34-9.71.78-14.12,1.21,1.15-4.64,6.35-21.95,7.09-23.23,2.47-.01,5.09-.12,7.8-.31,8.66-.6,19.03-2.16,22.67-4.3,3.65-2.15,5.75-7.42,4.68-11.74-.99-4.01-4.31-6.22-8.86-5.91-.3.02-.61.05-.93.1-4.49.62-8.98,1.3-13.47,1.99-2.5.38-5,.76-7.5,1.13l5.57-17.14c.75-.12,1.67-.25,2.57-.39,7.66-1.14,21.91-3.25,32.26-6.37,5.11-1.54,8.43-6.04,7.9-10.69-.49-4.28-4.48-8.35-12.27-7.82-1.12.08-2.3.25-3.52.51-9.6,2.05-19.92,4.14-30.3,5.6-7.93,1.11-9.13,5.65-10.01,8.96-.11.42-.23.86-.36,1.3-2.23,7.35-6.54,19.92-10.7,32.08-5.24,15.3-14.44,44.09-15.47,48.69-.7,3.12-.03,6.18,1.83,8.37,1.63,1.92,4.01,2.93,6.54,2.75h0Z"/>
  <path class="st2" d="M173.09,326.7c1.8-.58,3.33-1.8,5.09-2.5,1.58-.62,3.29-.8,4.98-.97,5.69-.57,11.38-1.14,17.07-1.72,3.16-.32,6.45-.67,9.16-2.33,2.79-1.7,4.73-4.79,4.82-8.05.1-3.26-1.75-6.56-4.68-7.99-2.11-1.03-4.56-1.08-6.91-1.03-5.57.12-11.11.69-16.65,1.27.52-2.51,1.2-4.99,2.02-7.42.14-.4.3-.83.65-1.08.3-.21.69-.25,1.06-.27,4.56-.34,9.12-.69,13.68-1.03,4.03-.3,8.12-.62,11.89-2.07,3.77-1.45,7.23-4.22,8.53-8.04,1.3-3.82-.15-8.67-3.81-10.38-2.43-1.14-5.26-.78-7.92-.4-6.32.91-12.64,1.82-18.96,2.73,1.85-5.76,3.71-11.52,5.56-17.28.13-.42,10.05-.37,11.25-.39,3.78-.07,7.56,0,11.33-.25,6.69-.44,14.78-1.78,18.24-8.32,1.33-2.51,1.54-5.7.15-8.18-1.34-2.39-3.97-3.84-6.66-4.4-2.69-.56-5.46-.34-8.2-.12-8.56.69-17.12,1.39-25.69,2.08-3.36.27-6.95.63-9.56,2.76-2.46,2-3.58,5.16-4.58,8.16-6.74,20.07-13.47,40.13-20.21,60.2-1.61,4.8-3.07,10.58.1,14.53,1.55,1.93,4.1,2.97,6.56,2.79.56-.04,1.12-.15,1.67-.32Z"/>
  <path class="st2" d="M81.58,365.05c29.1-2.02,50.1-12.93,62.42-32.43,7.92-12.54,10.57-24.04,7.88-34.2-4.63-17.48-23.82-26.12-33.05-30.27-1.82-.82-3.39-1.52-4.07-1.96-.44-.28-.73-.51-.91-.69l.05-.04c3.27-2.35,7.16-3.57,12.59-3.94,2.84-.2,5.85-.15,8.76-.1,2.99.05,6.08.1,9.09-.11.95-.07,1.9-.16,2.83-.28,3.79-.51,8.42-2.9,10.23-7.12.81-1.9,1.64-5.72-1.97-9.97-3.4-4-15.83-7.9-29.98-7.21-.43.02-.87.05-1.3.08-12.29.85-21.81,5.06-28.28,12.51-3.92,4.51-6.15,9.92-6.28,15.23-.39,15.95,14.95,23.62,26.16,29.22l1.04.52c7.73,3.87,11.64,9.11,11.64,15.56,0,8.28-6.67,16.88-13.26,21.09-9.84,6.28-21.91,7.84-31.33,8.49-.89.06-1.77.12-2.65.16-5.63.3-11.47.32-17.36.06-.48-.02-.96-.02-1.44.02-6.53.45-12.03,5.98-12.53,12.77-.49,6.63,4.29,12.16,10.87,12.58,7.28.47,14.3.48,20.86.02h0Z"/>
  <path class="st2" d="M410.76,207.39c5.16-1.37,12.07-4.23,15.73-10.09,1.59-2.55,1.75-5.05.44-6.86-1.8-2.47-5.21-2.36-6.67-2.31-.46.01-1.57,0-3.12,0-5.86-.03-18.05-.09-25.23.8l-.14.02c1.88-6.27,3.87-12.55,5.81-18.67,7.17-22.69,14.59-46.15,17.11-70.02.22-2.04.87-8.26-5.23-9.8-.97-.24-2.01-.3-3.08-.17-3.88.48-7.1,3.24-8.68,5.45-1.95,2.73-2.82,5.93-3.59,8.74l-.14.52c-4.5,16.42-8.99,32.95-13.47,49.45-4.41,16.25-8.82,32.47-13.22,48.54-.36,1.31-.71,3.25.31,4.99,2.13,3.61,7.55,2.95,9.62,2.69h.02c.95-.12,1.9-.27,2.79-.42.68-.11,1.33-.22,1.89-.29.25-.03.48-.05.68-.06.96-.04,1.92-.06,2.88-.07l.92-.02c5.22-.08,10.62-.17,16.02-.84,3.01-.37,5.75-.89,8.35-1.59Z"/>
  <path class="st2" d="M486.24,211.78c.4-.9.92-2.27.84-3.89-.15-2.81-2.11-5.15-4.88-5.84-3.89-.96-8.63-.72-12.8-.51-1.7.09-3.34.17-4.84.17-2.94,0-6.42.05-9.9.47-.8.1-1.57.21-2.33.34.91-3.5,1.97-8.41,3.36-15.38.43-2.17.77-3.85.95-4.57,1.62-6.4,3.15-12.82,4.67-19.24l2.05-8.56c.63-2.6,1.28-5.23,1.94-7.89,4.19-16.92,8.53-34.41,8.28-51.38-.03-2.3-.3-4.93-2.02-6.96-1.51-1.79-3.85-2.64-6.41-2.33-1.15.14-2.31.52-3.36,1.09-6.02,3.3-7.6,10.96-8.44,15.08l-12.34,59.97c-3.94,19.12-9.1,38.4-13.63,54.73-1.06,3.81-.27,7.29,2.06,9.1,1.95,1.52,4.26,1.35,5.63,1.26l22.81-1.61c2.16-.15,4.39-.29,6.7-.58,7.12-.87,17.12-3.2,21.67-13.47Z"/>
  <path class="st2" d="M147.33,214.76c5.93-16.76,11.07-35.24,16.21-49.43,5.16-14.22,10.49-28.92,16.44-45.73,1.41-3.99,3.2-6.69,5.64-8.51,2.34-1.74,5.42-2.84,9.99-3.56,10.53-1.66,21.06-3.33,31.59-5.01,20.59-3.28,41.88-6.66,62.83-9.85,21.65-3.3,44.06-5.26,65.74-7.16,7.99-.7,15.96-1.4,23.88-2.16,7.18-.69,14.37-1.37,21.55-2.05,8.32-.79,16.64-1.58,24.96-2.38,1.71-.17,3.43-.3,5.15-.42,4.54-.31,9.19-.5,13.68-.67,4.42-.17,8.98-.35,13.48-.66l2.76-.18c4.74-.33,15.84-1.1,18.18-9.73.64-2.36.22-4.54-1.21-6.32-2.42-3.02-8.84-6.81-36.46-4.89-5.22.36-9.68.82-12.34,1.1l-1.74.18c-15.53,1.45-31.33,3.11-48.28,5.07-6.54.75-13.08,1.5-19.62,2.24-7.17.82-14.33,1.63-21.5,2.46-58.53,6.76-117.81,16.44-181.22,29.6-4.18.87-8.58,1.67-12.83,2.44-9.63,1.75-19.58,3.56-28.84,6.43-6.2,1.93-8.32,5.7-8.23,8.58.04,1.42.83,6.14,9.17,7.05,1.97.21,3.99.25,6.16.1,4.21-.29,8.31-1.23,12.28-2.14,2.08-.48,4.23-.97,6.33-1.35,6.05-1.1,6.53-1.38,12.55-2.24,1.65-.24,3.3-.47,4.95-.71-.99,3.3-2.11,6.65-3.21,9.89l-1.31,3.9c-2.4,7.24-4.85,14.47-7.31,21.72-2.01,5.93-3.83,11.23-5.54,16.23-4.77,13.9-8.88,25.9-14.17,42.83-1.16,3.71-1.11,6.46.17,8.42.67,1.03,1.99,2.29,4.51,2.49.38.03.75.03,1.1,0,5.61-.39,13.78-3.5,14.51-5.58Z"/>
  <path class="st2" d="M319.45,207.29c-14.69,1.03-24.45-11.94-34.15-20.89-2.1-1.93-3.73-3.44-4.73-4.32-.02-.02-.06-.05-.11-.09-3.15,10.41-10.81,33.46-15.67,41.69-1.05,1.77-2.83,2.87-4.91,3.01-3.59.25-7.86-2.49-8.49-6.96-.7-4.99,10.4-36.3,14.93-47.91.37-.94,2.5-7.64,4.75-14.73,2.4-7.54,5.23-16.44,7.39-23,1.58-4.79,3.42-9.55,5.21-14.16.79-2.03,1.58-4.05,2.34-6.09,1.85-4.92,4.96-5.86,6.65-5.97.98-.07,1.97.1,2.95.5.43.18.88.26,1.3.23s.79-.17,1.09-.4l.37-.28c2.35-1.82,4.58-3.54,6.93-5.19,3.53-2.46,9.91-4.28,16.67-4.75,11.62-.8,19.83,2.45,21.96,8.71,2.88,8.46-5.07,20.19-24.29,35.87-4.38,3.57-9.03,6.85-13.53,10.02l-1.98,1.4c-2.4,1.7-4.94,3-7.39,4.27l-1.67.87c-.65.34-1.38.73-1.67,1.08-.24.29-.33.82-.24,1.3.24,1.14,1.54,2.3,2.8,3.42.42.37.83.74,1.2,1.1,1.95,1.88,3.92,3.75,5.89,5.61,4.86,4.56,9.71,9.19,15.22,12.97,4.37,3,10.95,5.75,11.63,11.76.19,1.67-.1,4.27-2.54,7.13-1.93,2.27-4.67,3.59-7.92,3.82ZM322.1,114.39c-.84.06-1.65.18-2.31.29-1.83.29-3.78.9-5.81,1.8-8.96,3.98-16.38,10.2-18.11,13.67-1.24,2.49-2.54,6.32-3.39,9.3,6.81-4.01,15.61-10.75,23.01-17.69,2.39-2.24,5.44-5.35,7.25-7.4-.19,0-.4.01-.64.03Z"/>
  <path class="st2" d="M237.31,212.09c2.9-10.02,5.77-20.06,8.64-30.09,5.61-19.63,11.41-39.92,17.37-59.84.51-1.75,1.69-5.85-.78-8.71-1.42-1.64-3.41-2.43-5.75-2.26-4.29.3-8.61,3.71-10.47,5.94-3.44,4.12-4.55,9.27-5.55,13.93-1.05,4.9-2.82,10.13-5.55,16.46-.33.76-.68,1.73-1.07,2.8-.73,2-2.96,8.09-4.59,8.47-.51.12-2.16.43-4.39.85-7.75,1.46-12.93,2.48-16.42,3.29,1.18-4.01,2.35-8.03,3.51-12.05l1.93-6.66c.7-2.4,1.53-4.82,2.33-7.17,1.61-4.7,3.27-9.57,4.1-14.76.23-1.39.75-4.65-1.38-6.93-.86-.91-2.46-1.96-5.23-1.77s-5.74,1.53-7.72,2.42l-.6.27c-7.05,3.11-8.62,11.88-9.87,18.93-.34,1.91-.66,3.71-1.05,5.09-2,7.17-4.31,14.71-7.28,23.73-2.49,7.55-5.13,15.21-7.69,22.61-2.7,7.83-5.5,15.92-8.12,23.93-1.04,3.18-3.47,10.61,2.04,14.13,1.38.88,2.98,1.29,4.62,1.18,4.19-.29,7.46-3.64,9-6.42,3.94-7.14,7.46-14.64,10.86-21.89,1.77-3.78,3.55-7.57,5.39-11.31,1.68-.64,6.04-1.49,7.57-1.78,1.06-.2,1.88-.37,2.25-.47l1.36-.36c3.65-.98,7.15-1.92,10.65-2.56-1.84,7.25-3.96,14.8-6.32,22.5l-.11.36c-1.67,5.43-5.15,16.74,2.29,20.62,1.48.77,3,1.11,4.52,1.01,7.21-.5,10.64-10.42,11.52-13.46Z"/>
  <path class="st1" d="M344.88,206.55c4.16-.29,5.65-3.34,6.22-4.49,2.71-5.52,4.18-11.53,5.6-17.35.55-2.26,1.1-4.51,1.71-6.69,4.52-16.01,7.98-32.31,12.74-48.27,2.7-9.05,5.49-18.41,6.68-27.69.25-1.97-1.13-3.93-2.52-4.92-1.04-.74-2.31-1.08-3.67-.99-1.43.1-2.82.67-4.02,1.64-8.41,6.82-11.58,15.99-14.11,24.79-2.3,7.98-5.16,15.82-6.91,23.95-3.81,17.72-10.24,36.7-8.15,55,.36,3.16,2.97,5.22,6.35,5.01h.07Z"/>
  <circle class="st1" cx="341.29" cy="220.35" r="8.82"/>
</svg>